<?xml version="1.0" encoding="utf-8"?>
<!-- Generator: Adobe Illustrator 24.1.0, SVG Export Plug-In . SVG Version: 6.00 Build 0)  -->
<svg version="1.1" id="Code__x26__Robotics" xmlns="http://www.w3.org/2000/svg" xmlns:xlink="http://www.w3.org/1999/xlink"
	 x="0px" y="0px" viewBox="0 0 283.46 283.46" style="enable-background:new 0 0 283.46 283.46;" xml:space="preserve">
<style type="text/css">
	.st0{fill:#1D1D1B;}
</style>
<g>
	<path class="st0" d="M141.73,33.82c-25.41,0-46.41,15.22-50.2,47.61c14.79-4.53,31.92-7.14,50.2-7.14s35.41,2.61,50.2,7.14
		C188.14,49.04,167.14,33.82,141.73,33.82z M100.8,73c5.53-20.73,15.36-34.4,41.62-35.63c20.87-0.98,41.75,13.7,45.64,39.69
		C167.14,67.62,129.98,66.55,100.8,73z"/>
	<g>
		<path class="st0" d="M124.56,53.68c-6.1,0.31-11.46,3.91-12.8,10.96c8.39-1.06,17.13-1.54,25.76-1.46
			C135.44,56.41,130.61,53.38,124.56,53.68z"/>
		<path class="st0" d="M167.81,56.8c-5.07-0.58-8.73,2.16-10.94,7.61c7.98,0.96,15.48,2.46,22.04,4.54
			C178.66,61.86,173.44,57.45,167.81,56.8z"/>
	</g>
	<g>
		<path class="st0" d="M192.49,89.09c-12.54-4.2-26.64-7.15-41.66-8.39c-22-1.81-42.65,0.29-59.75,5.32
			c-0.13,2.01-0.23,4.06-0.23,6.19c0,39.87,29.4,91.91,50.87,91.91c20.54,0,50.87-52.03,50.87-91.91
			C192.6,91.14,192.52,90.14,192.49,89.09z M143.28,176.53c-18.63,0-43.4-46.4-43.4-82.04c0-1.91,0.08-3.74,0.2-5.53
			c14.84-4.5,33.68-6.36,52.78-4.74c13.03,1.11,25.26,3.74,36.15,7.49c0.03,0.94,0.1,1.83,0.1,2.79
			C189.1,130.15,161.1,176.53,143.28,176.53z"/>
	</g>
	<g>
		<path class="st0" d="M135.75,233.71c4.16,0.94,8.27,1.5,11.32,2.1c0.53,0.1,0.66-0.07,0.2-0.27c-2.09-0.9-4.74-1.87-8.12-2.92
			c-10.3-3.2-2.1-7.13,2.81-8.95c1.71-0.63,1.05-0.57-0.15-0.3C132.59,225.45,116.58,229.41,135.75,233.71z"/>
		<path class="st0" d="M145.73,244.12c-0.46,0.16-1.22,0.56-1.22,0.56s-3.4,2-2.06,4.81c0.11,0.24,0.22,0.2,0.16-0.05
			c-0.57-2.14,2.73-3.7,4.01-4.1c0.63-0.2,4.99-1.13,4.99-1.13s14.43-3.15,1.11-6.51c1.13,0.97,1.19,2.38,1.15,2.61
			C153.46,242.55,147.29,243.57,145.73,244.12z"/>
		<path class="st0" d="M162.04,214.07c-0.82-0.73-2.18-1.51-4.15-2.32c-0.23-0.1-0.36-0.02-0.2,0.12c2.89,2.54-0.15,5.97-3.03,7.6
			c-1.53,0.87-3.15,1.55-4.83,2.08c-0.72,0.23-1.24,0.44,0.16,0.19c2.91-0.53,7.71-1.48,9.59-2.34
			C162.37,218.12,164.52,216.29,162.04,214.07z"/>
		<path class="st0" d="M150.91,195.68c1.18-0.31,0.68-0.84-0.25-0.59c-20.69,5.54-45.27,15.79-18.77,14.39
			c6.23-0.33,11.03-0.26,14.72,0.09c0.79,0.07,0.8-0.1,0.04-0.28c-1.92-0.47-4.07-0.94-6.47-1.42
			C126.66,205.15,138.12,199.85,150.91,195.68z"/>
	</g>
	<path class="st0" d="M228.68,150.83c-0.52-1.58-1.75-2.82-3.32-3.36l-5.12-1.73l-7.06-20.06c1.79-1.6,2.57-4.16,1.78-6.59
		c-0.82-2.53-3.11-4.15-5.61-4.29l-6.57-18.65c-0.51-1.58-3.9-0.47-3.38,1.1l5.7,18.93c-1.95,1.58-2.84,4.25-2.01,6.78
		c0.79,2.44,2.95,4.05,5.34,4.28l6.13,20.35l-3.11,4.42c-0.96,1.36-1.22,3.09-0.7,4.67l3.56,10.9l4.54,0.98l-4-12.25
		c-0.26-0.79-0.13-1.65,0.35-2.33l3.14-4.46l5.15,1.76c0.78,0.27,1.4,0.89,1.65,1.68l4,12.25l3.11-3.48L228.68,150.83z
		 M209.65,124.61c-1.75,0.57-3.64-0.39-4.21-2.14c-0.57-1.75,0.39-3.64,2.14-4.21c1.75-0.57,3.64,0.39,4.21,2.14
		C212.36,122.15,211.4,124.04,209.65,124.61z"/>
	<path class="st0" d="M80.68,96.15l-6.57,18.65c-2.5,0.13-4.79,1.76-5.61,4.29c-0.79,2.43-0.01,4.99,1.78,6.59l-7.06,20.06
		l-5.12,1.73c-1.57,0.53-2.8,1.78-3.32,3.36l-3.56,10.9l3.11,3.48l4-12.25c0.26-0.79,0.87-1.41,1.65-1.68l5.15-1.76l3.14,4.46
		c0.48,0.68,0.61,1.54,0.35,2.33l-4,12.25l4.54-0.98l3.56-10.9c0.52-1.58,0.26-3.31-0.7-4.67l-3.11-4.42l6.13-20.35
		c2.4-0.23,4.55-1.84,5.34-4.28c0.83-2.53-0.06-5.19-2.01-6.78l5.7-18.93C84.58,95.68,81.2,94.58,80.68,96.15z M78.03,122.47
		c-0.57,1.75-2.46,2.71-4.21,2.14c-1.75-0.57-2.71-2.46-2.14-4.21c0.57-1.75,2.46-2.71,4.21-2.14
		C77.65,118.83,78.6,120.72,78.03,122.47z"/>
	<path class="st0" d="M183.38,99.55c-0.01-0.19-0.01-0.38-0.02-0.57c-0.01-0.32-0.02-0.64-0.03-0.96c0-0.07-0.01-0.14-0.01-0.21
		c-0.53-0.18-1.1-0.32-1.63-0.49c-9.01-2.88-19-4.93-29.64-5.8c-16.52-1.36-32.02,0.22-44.86,3.99c-0.1,1.51-0.17,3.05-0.17,4.65
		c0,8.11,1.67,16.88,4.35,25.37c0.17,0.53,0.3,1.07,0.48,1.6c0.11-0.03,0.23-0.05,0.35-0.08c0.43-0.1,0.87-0.19,1.31-0.29
		c0.03-0.01,0.06-0.01,0.09-0.02c0.67-0.15,1.4-0.24,2.08-0.38c10.97-2.23,23.32-3.07,36.37-2c9.13,0.75,17.77,2.38,25.75,4.64
		c3.35-9.29,5.45-19.08,5.57-28.1c0-0.25,0.04-0.51,0.04-0.76C183.4,99.94,183.38,99.75,183.38,99.55z M157.54,95.98
		c4.76,0.43,9.05,1.05,13.22,1.86c0.74,6.3-3.67,12.08-9.99,12.97c-6.41,0.91-12.34-3.56-13.24-9.96c-0.27-1.93-0.03-3.79,0.58-5.51
		C151.24,95.5,154.38,95.69,157.54,95.98z M124.25,118.22c0.5-2.82,3.2-4.7,6.02-4.19c2.82,0.5,4.7,3.2,4.19,6.02
		c-0.11,0.61-0.35,1.16-0.65,1.66c-2.89,0.12-5.72,0.32-8.48,0.62C124.44,121.2,123.98,119.74,124.25,118.22z M176.23,126.69
		c-7.97-2.26-16.61-3.89-25.75-4.64c-2.83-0.23-5.62-0.36-8.38-0.42l0.28-1.56c0.17-0.94-0.46-1.84-1.4-2.01l-2.14-0.38
		c-0.2-1.21-0.62-2.35-1.23-3.39l1.41-1.67c0.62-0.73,0.52-1.82-0.21-2.44l-2.25-1.89c-0.73-0.62-1.82-0.52-2.44,0.21l-1.38,1.64
		c-0.56-0.21-1.14-0.39-1.76-0.5s-1.22-0.15-1.82-0.14l-0.73-2.02c-0.32-0.9-1.32-1.36-2.22-1.04l-2.76,1
		c-0.9,0.32-1.36,1.32-1.04,2.22l0.74,2.05c-0.93,0.76-1.72,1.69-2.33,2.76l-2.14-0.38c-0.94-0.17-1.84,0.46-2.01,1.4l-0.52,2.89
		c-0.17,0.94,0.46,1.84,1.4,2.01l2.14,0.38c0.12,0.77,0.38,1.49,0.68,2.2c-2.05,0.3-4.06,0.63-6.03,1.03
		c-1.85-7.08-2.99-14.23-2.93-20.93c0.01-1.6,0.1-3.14,0.21-4.65c9.2-2.62,20.29-3.48,31.89-3.22c-0.13,0.56-0.26,1.11-0.33,1.69
		l-5.56,0.79l1.2,8.48l5.56-0.79c0.58,1.36,1.32,2.62,2.21,3.75l-3.38,4.49l6.84,5.15l3.38-4.49c1.34,0.54,2.75,0.91,4.21,1.08
		l0.79,5.56l8.48-1.2l-0.79-5.56c1.36-0.58,2.62-1.32,3.75-2.21l4.49,3.38l5.15-6.84l-4.49-3.38c0.54-1.34,0.91-2.75,1.08-4.21
		l4.57-0.65c0.14,0.04,0.27,0.07,0.41,0.11C180.95,109.13,179.49,117.67,176.23,126.69z"/>
</g>
</svg>
