<?xml version="1.0" encoding="utf-8"?>
<!-- Generator: Adobe Illustrator 24.1.0, SVG Export Plug-In . SVG Version: 6.00 Build 0)  -->
<svg version="1.1" id="Tools__x26__Engineering" xmlns="http://www.w3.org/2000/svg" xmlns:xlink="http://www.w3.org/1999/xlink"
	 x="0px" y="0px" viewBox="0 0 283.46 283.46" style="enable-background:new 0 0 283.46 283.46;" xml:space="preserve">
<g>
	<path d="M111.55,91.15c0.04,0,0.08,0.02,0.12,0.02c0.04,0,0.08-0.02,0.12-0.02H111.55z"/>
	<path d="M111.66,100.49c0.69-0.06,1.23-0.62,1.23-1.33V92.5c0-0.7-0.54-1.26-1.23-1.33c-0.69,0.06-1.23,0.62-1.23,1.33v6.66
		C110.43,99.87,110.98,100.43,111.66,100.49z"/>
	<path d="M111.78,100.52c-0.04,0-0.08-0.02-0.12-0.02c-0.04,0-0.08,0.02-0.12,0.02H111.78z"/>
	<path d="M111.55,46.1c0.04,0,0.08,0.02,0.12,0.02c0.04,0,0.08-0.02,0.12-0.02H111.55z"/>
	<path d="M111.66,60.43c0.69-0.06,1.23-0.62,1.23-1.33V47.45c0-0.7-0.54-1.26-1.23-1.33c-0.69,0.06-1.23,0.62-1.23,1.33V59.1
		C110.43,59.8,110.98,60.36,111.66,60.43z"/>
	<path d="M111.78,60.45c-0.04,0-0.08-0.02-0.12-0.02c-0.04,0-0.08,0.02-0.12,0.02H111.78z"/>
	<path d="M192.67,185.47c-0.77-0.73-1.88-0.99-3.22-0.94h-37.83c1.17-3.08,11-5.81,11-5.81l-26.79,5.72l0.5-42.12h-2.35v49.94
		l1.77-0.49l0.07-6.06l14.18-3.07c0,0-12.01,6.75,9.01,9.63c13.7,1.87,16.68,1.54,16.68,1.54s-31.15,4.56-16.58,20.21
		c0,0-21.5-10.98-41.22-5.33c-8.13,2.33-11.34,4.84-11.34,4.84s17.93-13.73-3.35-19.13c0,0,27.67-2.67,18.46-11.75l8.43,2.68
		l0.12,8.23l1.77-0.54v-50.68h-2.52l0.6,41.1l-15.54-4.94c4.16,2.33,5.85,4.34,5.86,6.05H89.41c-0.8,0-1.57,0.33-2.12,0.92
		l-44.39,46.97h0v7.25c0,1.61,1.3,2.91,2.91,2.91h111.16v-10.16l-12.15-20.84c1.43,0.31,2.82,0.66,4.17,1.04l11.61,19.8v10.16h77.01
		c1.64,0,2.97-1.33,2.97-2.97v-7.19L192.67,185.47z M150.57,232.41H49.07l39.67-45.14c0.56-0.63,1.36-0.99,2.2-0.99h28.81
		c-4.3,5.91-29.83,7.67-29.83,7.67c36.82,5.24,4.39,27.62,4.39,27.62s9.92-6.57,28.92-10.55c5.56-1.17,11.25-1.09,16.67-0.33
		L150.57,232.41z M166.99,232.41l-12.21-17.95c9.27,3.33,15.7,7.36,15.7,7.36c-33.76-24.08,21.13-29.34,21.13-29.34
		s-13.02,0.02-28.28-2.45c-6.87-1.11-10.17-2.42-11.32-3.75h37.92c0.79,0,1.54,0.32,2.09,0.88l44.16,45.25H166.99z"/>
	<path d="M157.66,154.62c-6.14,0.88-14.22,6.53-12.17,20.99c0,0-0.23-17.84,15.64-15.76c5.06,0.66,8.15-1.28,10.07-4.17
		C166.96,155.62,161.69,154.05,157.66,154.62z"/>
	<path d="M176.88,153.83c1.8-1.99,2.24-5.19,2.83-8.53c1.76-9.99,1.84-12.26,9.81-15.9c-9.94,1.98-14.53,10.29-15.66,18.58
		c-0.37,2.69-1.17,5.47-2.65,7.7C173.53,155.72,175.55,155.31,176.88,153.83z"/>
	<path d="M83.96,124.32c-1.24,4.82,0.67,9.05,4.05,12.66c0.49-5.28,1.2-7.58,1.9-14.74c0.68-6.91-0.39-18.9-20-28.1
		C69.91,94.15,87.84,109.23,83.96,124.32z"/>
	<path d="M89.93,144.38c2.53,3.09,7.01,5.48,11.66,8.11c13.9,7.87,17.11,9.33,20.98,19.85c-1.19-11.56-12.24-21.37-23.83-27.57
		c-3.97-2.12-7.87-4.73-10.72-7.78C87.76,139.66,88.14,142.21,89.93,144.38z"/>
	<path d="M166.95,133.61c-0.02-5.62,5.6-14.01,5.6-14.01s-9.15,4.79-10.17,14.05c-1.01,9.27-4.94,13.23-4.94,13.23
		S167.01,145.95,166.95,133.61z"/>
	<path d="M80.96,144.22c0,0-9.82-9.42-7.18-19.98C61.98,140.06,80.96,144.22,80.96,144.22z"/>
	<path d="M186.26,160.52c-8.09,10.35-21.54,12.27-21.54,12.27S178.17,180.72,186.26,160.52z"/>
	<path d="M197.29,98.34c0,0,3.42,22.74-7.85,24.32C208.77,126.91,197.29,98.34,197.29,98.34z"/>
	<path d="M120.59,154.09c0,0,4.65-18.13-18.25-17.96C115.1,140.33,120.59,154.09,120.59,154.09z"/>
	<path d="M93.62,88.01h8.53v15.21c0,1.96,0.71,3.85,2,5.33l25.3,25.68v3.57c0,0.76,0.62,1.37,1.38,1.37h4.15
		c0.76,0,1.37-0.62,1.37-1.37v-3.57l25.3-25.68c1.29-1.47,2-3.37,2-5.33V88.01h7.4c1.25,0,2.27-1.01,2.27-2.27V63.6h-9.66V42.24
		c0-0.75-0.6-1.35-1.35-1.35c-0.75,0-1.35,0.6-1.35,1.35V63.6h-53.53l0-21.35c0-0.75-0.6-1.35-1.35-1.35h-1.21h-0.14h-1.21
		c-0.75,0-1.35,0.6-1.35,1.35V63.6h-8.53c-1.25,0-2.27,1.01-2.27,2.27v19.88C91.35,86.99,92.37,88.01,93.62,88.01z M160.95,102.2
		c0,1.96-0.71,3.85-2,5.33l-24.37,24.62l-23.78-24.13c31.22,2.71,44.78-2.72,44.78-2.72c-18.98,2.09-39.32-0.82-47.96-2.32
		c-0.12-0.55-0.19-1.11-0.19-1.68l0-13.3h53.53V102.2z M96.24,69.25c0-1.63,1.32-2.96,2.96-2.96h1.64h1.31h5.26h53.53h2.7h4.7h2.27
		v2.27v10.57v1.38c0,1.63-1.32,2.96-2.96,2.96h-4h-2.7h-53.53h-5.26H99.2c-1.63,0-2.96-1.32-2.96-2.96V69.25z"/>
	<path d="M99.92,81.4h0.88c0.75,0,1.35-0.6,1.35-1.35V69.94c0-0.75-0.6-1.35-1.35-1.35h-0.88c-0.75,0-1.35,0.6-1.35,1.35v10.11
		C98.57,80.79,99.17,81.4,99.92,81.4z"/>
</g>
</svg>
