<?xml version="1.0" encoding="utf-8"?>
<!-- Generator: Adobe Illustrator 24.1.0, SVG Export Plug-In . SVG Version: 6.00 Build 0)  -->
<svg version="1.1" id="Explore__x26__Discover" xmlns="http://www.w3.org/2000/svg" xmlns:xlink="http://www.w3.org/1999/xlink"
	 x="0px" y="0px" viewBox="0 0 283.46 283.46" style="enable-background:new 0 0 283.46 283.46;" xml:space="preserve">
<style type="text/css">
	.st0{fill:none;}
</style>
<g>
	<g>
		<path d="M202.29,207.57c0-0.04-0.02-0.11-0.08-0.25c-1.13-3.07-6.85-3.95-14.06-2.59c5.17-0.63,9.41-0.17,10.83,1.68
			c0.08,0.11,0.26,1.5,0.27,1.53c9.87,2.52,14.36,7.26,14.42,10.64c0.1,5.45-13.47,11.98-35.37,14.41
			c-5.62,0.62-13.47,2.74-18.37,5.5c-3.96,2.23-4.82,2.94-9.61,4.76c-20.59,7.83-40.9,7.72-44.01-0.12
			c-0.89-2.23-0.36-4.86,1.31-7.65c1.51-2.53-0.16-6.43-3.06-7.18c-8.09-2.09-14.04-5.66-14.04-8.71c0-2.59,6.22-5.89,16.39-8.71
			c-12.21,2.65-19.8,6.33-19.8,10.4c0,3.36,5.19,6.45,13.87,8.91c3.11,0.88,4.38,4.4,2.7,7.17c-1.86,3.05-2.47,5.94-1.56,8.42
			c3.2,8.72,23.93,9.12,46.3,0.9c5.21-1.91,10.04-4.13,14.36-6.51c5.34-2.95,11.16-4.9,17.24-5.47c23.67-2.24,40.26-7.4,40.26-13.42
			C220.27,217.55,212.89,210.55,202.29,207.57z"/>
	</g>
	<g>
		<path class="st0" d="M181.17,55.78c-0.06,0.11-0.11,0.23-0.17,0.34L181.17,55.78z"/>
		<g>
			<path class="st0" d="M180.67,56.81c0.02-0.02,0.06-0.05,0.09-0.07c0.09-0.21,0.15-0.42,0.25-0.62L180.67,56.81z"/>
		</g>
	</g>
	<path d="M207.96,216.35c0,0-1.69,4.42-12.36,8.2C195.6,224.55,208.65,224.46,207.96,216.35z"/>
	<path d="M185.55,118.21c-0.51-1.21-1.9-1.77-3.11-1.26c-0.07,0.03-0.13,0.07-0.2,0.11l-1.92-1.92c-0.22-0.22-0.61-0.18-0.87,0.08
		s-0.3,0.65-0.08,0.87l1.92,1.92c-0.33,0.61-0.4,1.36-0.11,2.05c0.51,1.21,1.9,1.77,3.11,1.26
		C185.5,120.81,186.06,119.41,185.55,118.21z"/>
	<path d="M212.37,37.51c-0.71,0-1.23,0.55-1.34,1.23c-0.01,0.09-0.03,0.19-0.04,0.29c-0.09,1.15-0.3,2.35-0.69,3.49l-7.19-8.01
		c1.1-0.27,2.3-0.44,3.64-0.44c0.06,0,0.13,0.01,0.2,0.01c0.88-0.05,1.59-0.75,1.59-1.64c0-0.77-0.57-1.31-1.28-1.51
		c-0.25-0.02-0.48-0.02-0.72-0.03c-4.42-0.21-7.93,0.71-10.24,3.07c-3.51,3.66-3.5,9.28-3.14,12.6l3.21,0.5
		c-0.13-1.56-0.14-3.58,0.29-5.57l6.07,7.11c-1.81,0.25-3.89,0.2-6.26-0.19c-0.51-0.08-2.59-0.36-3.16-0.45
		c-5.87-0.97-10.6-0.31-13.56,2.55c-4.02,4.2-3.45,11.05-2.99,13.94c-6.12-1.05-10.74-0.21-13.62,2.67c-0.05,0.05-0.1,0.1-0.15,0.15
		c-1.71,1.78-2.58,4.04-2.99,6.28c-1.53-0.38-3.32-0.5-5.44-0.24c0,0,10.32,3.39,13.73,16.93c0,0,0.32-2.59-0.1-5.75
		c4.1,0.33,7.05-0.39,9.25-2.74c3.89-4.06,3.48-10.65,3.04-13.68c5.98,0.98,10.52,0.13,13.36-2.71c0.05-0.05,0.1-0.1,0.15-0.15
		c3.43-3.58,3.48-9.01,3.15-12.35l-3.21-0.58c0.08,1,0.1,2.18,0,3.41l-5.44-5.37c1.55-0.07,3.3,0.1,5.33,0.48
		c0.4,0.07,2.6,0.37,3.16,0.45c5.85,0.86,10.6-0.16,13.35-2.92l0.14-0.15c2.41-2.52,3.11-5.97,3.21-8.96
		c0.01-0.18,0.01-0.35,0.01-0.53C213.55,38.03,213.05,37.51,212.37,37.51z M177.3,67.6c0.19,1.51,0.3,3.8-0.12,6.1l-6.09-6.28
		C172.88,67.16,174.95,67.22,177.3,67.6z M174.06,79.54l-8.21-9.66c0.73-0.76,1.61-1.34,2.62-1.76l7.95,8.2
		c-0.42,0.99-0.98,1.91-1.76,2.71C174.49,79.23,174.26,79.37,174.06,79.54z M167.63,81.69c-0.7-2.52-1.99-5.04-4.34-6.68
		c0.21-1.02,0.54-2.03,1.02-2.97l7.7,8.77C170.77,81.35,169.3,81.64,167.63,81.69z M179.94,64.89c-0.26-2.03-0.57-5.45,0.74-8.61
		c0.2-0.51,0.38-0.95,0.38-0.95l8.05,8.75C186.84,65.24,183.73,65.47,179.94,64.89z M193.21,59.13c-0.4,1.14-0.99,2.23-1.84,3.17
		l-9.05-9.06c0.04-0.05,0.07-0.1,0.11-0.15c0.58-0.75,1.24-1.42,2.12-1.85c0.3-0.15,0.6-0.28,0.91-0.39L193.21,59.13z M205.54,47.84
		l-7.84-9.24c0.37-0.69,0.79-1.35,1.36-1.93c0.41-0.43,0.88-0.79,1.39-1.1l8.73,9.25c-0.28,0.41-0.58,0.82-0.93,1.19
		C207.5,46.8,206.59,47.39,205.54,47.84z"/>
	<g>
		<g>
			<path d="M95.34,87.55l5.69-3.28c0.38-0.22,0.46-0.8,0.17-1.3c-0.29-0.5-0.83-0.72-1.21-0.5l-5.69,3.28
				c-0.38,0.22-0.46,0.8-0.17,1.3C94.41,87.54,94.95,87.77,95.34,87.55z"/>
		</g>
		<g>
			<path d="M91.16,83.55l0.01-6.47c0-0.43-0.46-0.78-1.04-0.79c-0.57,0-1.04,0.35-1.04,0.78l-0.01,6.47c0,0.43,0.46,0.78,1.04,0.79
				C90.69,84.34,91.16,83.98,91.16,83.55z"/>
		</g>
		<g>
			<path d="M101.24,76.36l-5.59-3.3c-0.37-0.22-0.91,0-1.21,0.49c-0.29,0.49-0.22,1.07,0.15,1.29l5.59,3.3
				c0.37,0.22,0.91,0,1.21-0.49C101.68,77.16,101.61,76.58,101.24,76.36z"/>
		</g>
	</g>
	<path d="M119.27,113.21c-0.45-0.45-1.13-0.52-1.51-0.14l-3.4,3.4l-0.09-0.07c-1.37-0.79-2.98-0.89-4.41-0.28
		c-2.52,1.07-3.7,3.99-2.63,6.51c0.52,1.22,1.48,2.17,2.71,2.66c0.6,0.24,1.23,0.36,1.86,0.36c0.66,0,1.32-0.13,1.94-0.4
		c1.22-0.52,2.17-1.48,2.66-2.71s0.48-2.58-0.03-3.8c-0.06-0.15-0.14-0.29-0.22-0.42l-0.17-0.17l3.43-3.43
		C119.79,114.34,119.73,113.67,119.27,113.21z M112.86,123.25c-1.62,0.69-3.49-0.07-4.18-1.69c-0.69-1.62,0.07-3.49,1.69-4.18
		c1.62-0.69,3.49,0.07,4.18,1.69C115.24,120.69,114.48,122.56,112.86,123.25z"/>
	<path d="M192.73,94.05l4.76,0.93l-0.04,0.24c0.01,0.16,0.02,0.32,0.05,0.48c0.25,1.3,1,2.42,2.1,3.17c1.1,0.74,2.42,1.01,3.72,0.76
		c0.66-0.13,1.28-0.39,1.83-0.75c0.52-0.35,0.98-0.81,1.34-1.34c0.74-1.1,1.01-2.42,0.76-3.72c-0.52-2.69-3.14-4.45-5.82-3.92
		c-1.53,0.3-2.81,1.28-3.5,2.7l-0.04,0.11l-4.71-0.92c-0.53-0.1-1.05,0.33-1.18,0.96C191.87,93.36,192.2,93.95,192.73,94.05z
		 M199.18,94.94c-0.34-1.73,0.79-3.4,2.52-3.74c1.73-0.34,3.4,0.79,3.74,2.52c0.34,1.73-0.79,3.4-2.52,3.74
		C201.19,97.8,199.52,96.67,199.18,94.94z"/>
	<path d="M132.52,46.98c0.62-0.38,0.88-1.11,0.56-1.63l-2.81-4.67l0.1-0.08c1.25-1.29,1.8-3.04,1.52-4.79
		c-0.49-3.07-3.38-5.17-6.45-4.68c-1.49,0.24-2.79,1.04-3.68,2.26c-0.43,0.6-0.74,1.26-0.91,1.95c-0.18,0.72-0.21,1.49-0.09,2.25
		c0.24,1.49,1.04,2.79,2.26,3.68c1.22,0.88,2.71,1.24,4.19,1c0.18-0.03,0.36-0.08,0.53-0.13l0.24-0.14l2.84,4.72
		C131.14,47.24,131.9,47.36,132.52,46.98z M123.21,37.18c-0.32-1.97,1.03-3.83,3.01-4.15c1.97-0.32,3.83,1.03,4.15,3.01
		c0.32,1.97-1.03,3.83-3.01,4.15C125.39,40.5,123.53,39.15,123.21,37.18z"/>
	<g>
		<path d="M152.62,117.13c-0.54,0-0.97,0.36-0.97,0.81v6.7c0,0.45,0.44,0.81,0.97,0.81c0.54,0,0.97-0.36,0.97-0.81v-6.7
			C153.59,117.49,153.15,117.13,152.62,117.13z"/>
		<path d="M187.57,70.61c-1.43,0.14-2.34,0.15-3.88-0.11c0.92,2.3,1.28,4.27,1.44,7.25c0.38,7.28-3.27,14.6-7.39,19.2
			c-1.13,7.06-7.59,12.69-15.7,13.11c-4.25,0.22-6.8-0.32-9.87-2.55c-1.79,1.4-3.96,2.43-6.48,2.56c-3.18,0.17-6.06-0.96-8.16-2.83
			c-0.07-0.01-0.14,0.01-0.21,0c-9.42-0.97-15.9-10.69-15.03-20.58c-0.86-2.21-1.94-5.39-2.07-7.86c-0.3-5.66,1.24-11.86,4.54-16.21
			c-0.13-0.35-0.16-0.24-0.38-1.03c-0.81-2.85,1.59-5.77,4.85-5.94c1.3-0.07,2.47,0.33,3.48,0.93c2.32-1.3,6.44-2.8,9.15-3.43
			c3.01-3.49,6.88-4.12,12.1-4.4c6.91-0.36,13.02,3.03,16.1,8.21c1.91,0.61,3.25,1.25,4.78,2.3c-0.16-1.48-0.09-2.41,0.16-3.3
			c-0.77-0.42-1.02-0.49-2-0.86c-3.26-6.11-10.17-10.36-18.25-10.36c-6.1,0-11.51,2.46-15.23,6.28c-3.2,0.56-6.15,1.64-8.93,2.99
			c-1.14-0.75-2.47-1.27-3.99-1.27c-3.8,0-6.88,2.76-6.88,6.16c0,1.01,0.34,1.93,0.82,2.77c-4.1,4.78-6.64,10.7-6.64,17.19
			c0,2.84,0.61,5.52,1.47,8.11c-0.15,1.02-0.2,2.03-0.21,3.03l-8.18-4.72v-9.93l5.49-3.17v-3.55l-6.99,4.03l-10.23-5.9l-11.72,6.76
			l0.01,11.75l-8.64,4.99l-8.64-4.99l0-11.81l-3.08,1.5l0,12.09l11.72,6.77l10.18-5.88l10.18,5.88l10.18-5.88l10,5.78
			c1.4,8.37,7.65,15.14,16.31,16.48c0.08,0.01,0.16,0,0.24,0.01c2.34,2.26,5.62,3.73,9.33,3.73c0.37,0,0.71-0.06,1.07-0.09v12.94
			c0,0.89,0.86,1.61,1.93,1.61c1.06,0,1.93-0.72,1.93-1.61v-13.28c0-0.2-0.06-0.38-0.13-0.56c1.04-0.42,2.02-0.94,2.92-1.56
			c1.83,1.45,3.95,2.61,6.28,3.38v12.01c0,0.89,0.86,1.61,1.93,1.61c1.06,0,1.93-0.72,1.93-1.61v-11.14c0.9,0.12,1.81,0.2,2.75,0.2
			c9.47,0,17.34-6.05,19.09-14.07c5.09-5.01,8.38-12.4,8.38-20.75C189.41,76.85,188.98,74,187.57,70.61z M103.91,85.26l-8.64,4.99
			l-8.64-4.99v-9.98l8.64-4.99l8.64,4.99L103.91,85.26z"/>
		<path d="M183.79,63.69c-0.75-1.12-1.58-2.15-2.53-3.04c-0.15,1.13-0.08,2.19,0.01,2.97C182.19,63.73,183.04,63.77,183.79,63.69z"
			/>
	</g>
	<g>
		<path d="M187.51,212.79l-20.62-65.23l0,0H167c3.52,0,6.37-3.41,6.37-7.62c0-4.21-2.85-7.62-6.37-7.62h-33.23
			c-3.52,0-6.37,3.41-6.37,7.62c0,4.21,2.85,7.62,6.37,7.62h0.08l-20.6,65.23c-0.99,6.73,4.23,12.78,11.04,12.78h52.18
			C183.28,225.56,188.5,219.52,187.51,212.79z M133.32,139.34c0-2.85,1.93-5.16,4.31-5.16h28.92c2.38,0,4.31,2.31,4.31,5.16
			c0,2.85-1.93,5.16-4.31,5.16h-1.61h-1.25H145.3c-0.71,0-1.28,0.68-1.28,1.53c0,0.84,0.57,1.53,1.28,1.53h19.24l8.75,31.61
			c-2.9,0.69-9.13,1.34-20.86-0.72c-11.41-2-18.41-1.44-21.98-0.77l2.56-9.44h10.38c0.71,0,1.28-0.68,1.28-1.53
			c0-0.84-0.57-1.53-1.28-1.53h-9.55l2.4-8.82h9.94c0.71,0,1.28-0.68,1.28-1.53s-0.57-1.53-1.28-1.53h-9.11l2.39-8.8l0.12-0.01
			h-1.95C135.25,144.5,133.32,142.19,133.32,139.34z M172.71,221.06l-41.04-0.04c-5.65,0.25-10.23-5.48-9.7-12.12l3.7-13.62h10.14
			c0.71,0,1.28-0.68,1.28-1.53c0-0.84-0.57-1.53-1.28-1.53h-9.31l2.68-9.88c3.72-0.62,10.56-1.02,22.28,0.47
			c13.43,1.7,19.51-0.69,22.13-2.55l7.72,27.89C182.43,214.71,178.36,220.82,172.71,221.06z"/>
		<path d="M164.45,191.96c-3.46-1.4-7.41,0.27-8.81,3.74c-1.4,3.46,0.27,7.41,3.74,8.81c3.46,1.4,7.41-0.27,8.81-3.74
			C169.58,197.31,167.91,193.36,164.45,191.96z M166.46,200.73c-0.94,2.33-3.59,3.45-5.92,2.51c-2.33-0.94-3.45-3.59-2.51-5.92
			c0.94-2.33,3.59-3.45,5.92-2.51C166.28,195.75,167.4,198.4,166.46,200.73z"/>
		<path d="M161.45,210.1c-1.57-0.64-3.36,0.12-4,1.7c-0.64,1.57,0.12,3.36,1.7,4c1.57,0.64,3.36-0.12,4-1.7
			S163.02,210.74,161.45,210.1z M161.74,213.53c-0.32,0.8-1.23,1.18-2.03,0.86c-0.8-0.32-1.18-1.23-0.86-2.03
			c0.32-0.8,1.23-1.18,2.03-0.86C161.68,211.83,162.06,212.74,161.74,213.53z"/>
		<path d="M148.79,202.08c-1.84-0.74-3.93,0.14-4.67,1.98c-0.74,1.84,0.14,3.93,1.98,4.67c1.84,0.74,3.93-0.14,4.67-1.98
			C151.52,204.91,150.63,202.82,148.79,202.08z"/>
	</g>
</g>
</svg>
